# xmcd
#
# Track frame offsets: 
#        150
#        19497
#        35950
#        53773
#        67062
#
# Disc length: 1183 seconds
#
# Revision: 0
# Processed by: cddbd v1.5.1PL0 Copyright (c) Steve Scherf et al.
# Submitted via: ExactAudioCopy v0.95a5
#
DISCID=49049d05
DTITLE=Maceo Parker - Maceo Parker On Tour With Ani DiFranco
DYEAR=1999
DGENRE=Blues
TTITLE0=Uptown Up
TTITLE1=Sing A Simple Song
TTITLE2=Particular Place To Be
TTITLE3=Everything I Need
TTITLE4=I Tried
EXTD=
EXTT0=
EXTT1=
EXTT2=
EXTT3=
EXTT4=
PLAYORDER=
